<svg width="557" height="374" viewBox="0 0 557 374" fill="none" xmlns="http://www.w3.org/2000/svg">
<g clip-path="url(#clip0)">
<path d="M187.447 34.7595C187.447 34.7595 180.867 53.4729 184.916 56.3518C188.966 59.2308 171.249 82.7425 171.249 82.7425L149.988 76.9846L161.631 57.3115C161.631 57.3115 163.149 37.6384 163.149 34.7595C163.149 31.8805 187.447 34.7595 187.447 34.7595Z" fill="#FFB8B8"/>
<path opacity="0.1" d="M187.447 34.7595C187.447 34.7595 180.867 53.4729 184.916 56.3518C188.966 59.2308 171.249 82.7425 171.249 82.7425L149.988 76.9846L161.631 57.3115C161.631 57.3115 163.149 37.6384 163.149 34.7595C163.149 31.8805 187.447 34.7595 187.447 34.7595Z" fill="black"/>
<path d="M198.493 168.152C198.493 168.152 200.414 192.144 198.493 204.62C196.572 217.095 193.691 251.643 193.691 251.643C193.691 251.643 193.691 316.9 183.125 317.86C172.56 318.819 164.876 319.779 163.915 315.94C162.955 312.102 168.718 310.182 165.836 308.263C162.955 306.344 161.994 299.626 165.836 291.949C169.678 284.272 165.836 206.539 165.836 206.539L147.587 255.482C147.587 255.482 145.666 295.787 143.745 301.545C141.824 307.303 145.666 317.86 138.942 318.819C132.219 319.779 124.534 314.021 120.692 312.102C116.85 310.182 126.455 310.182 124.534 309.223C122.613 308.263 116.85 305.384 118.771 304.424C120.692 303.465 122.613 257.401 122.613 257.401C122.613 257.401 127.896 159.036 134.62 155.197C141.343 151.358 145.666 157.97 145.666 157.97L198.493 168.152Z" fill="#2F2E41"/>
<path d="M181.205 314.537V322.214C181.205 322.214 189.849 343.084 181.205 343.084C172.56 343.084 165.836 345.246 165.836 342.367V316.456L181.205 314.537Z" fill="#2F2E41"/>
<path d="M124.534 314.007V321.685C124.534 321.685 115.89 342.554 124.534 342.554C133.179 342.554 139.903 344.717 139.903 341.838V315.927L124.534 314.007Z" fill="#2F2E41"/>
<path d="M174.001 48.6745C183.549 48.6745 191.29 40.9407 191.29 31.4006C191.29 21.8605 183.549 14.1267 174.001 14.1267C164.452 14.1267 156.711 21.8605 156.711 31.4006C156.711 40.9407 164.452 48.6745 174.001 48.6745Z" fill="#FFB8B8"/>
<path d="M179.283 63.5493C179.283 63.5493 174.481 77.9442 166.797 75.0653L159.113 72.1863L145.666 164.314C145.666 164.314 156.231 179.668 171.599 170.072C186.967 160.475 179.283 63.5493 179.283 63.5493Z" fill="#F2F2F2"/>
<path d="M165.836 60.6703L161.514 51.5535C161.514 51.5535 136.061 63.5493 132.218 67.388C128.376 71.2266 128.376 76.9846 128.376 76.9846L135.1 100.976C135.1 100.976 133.179 153.758 133.179 155.677C133.179 157.596 126.455 168.152 131.258 164.314C136.061 160.475 137.021 156.637 140.863 162.395C144.705 168.152 153.35 174.87 153.35 174.87L165.836 60.6703Z" fill="#D0CDE1"/>
<path d="M132.219 129.766L135.1 156.636C135.1 156.636 152.389 171.991 148.547 172.951C144.705 173.91 142.784 170.072 142.784 170.072C142.784 170.072 136.061 176.789 132.219 172.951C128.377 169.112 118.771 132.645 118.771 132.645L132.219 129.766Z" fill="#FFB8B8"/>
<path d="M173.632 6.98767C177.465 6.85078 181.567 6.78306 184.798 8.84668C186.285 9.88233 187.589 11.1578 188.657 12.621C191.805 16.5963 194.524 21.5981 193.355 26.5304L191.997 26.0013C191.997 27.3179 192.29 28.618 192.855 29.8075C192.664 29.252 192.023 30.15 192.195 30.712L193.691 35.6148C191.232 34.7142 188.173 36.5377 187.799 39.1274C187.628 33.4327 187.037 26.9027 182.413 23.5682C180.081 21.8867 177.13 21.3733 174.291 20.9175C171.672 20.497 168.926 20.0959 166.417 20.9575C163.909 21.819 161.772 24.3825 162.341 26.9713C161.184 26.5732 159.89 27.3787 159.319 28.4595C158.747 29.5402 158.717 30.8152 158.7 32.0374C157.467 32.9081 156.063 31.1792 155.561 29.7566C154.381 26.4173 153.333 22.8627 153.968 19.379C154.604 15.8952 157.445 12.5659 160.989 12.5541C160.559 12.082 160.33 11.4612 160.349 10.823L163.271 10.5764C162.529 10.4715 161.847 10.1122 161.341 9.56014C162.514 10.8496 171.736 7.05542 173.632 6.98767Z" fill="#2F2E41"/>
<path d="M174.481 57.7913C174.481 57.7913 182.3 50.1358 185.114 50.6048C187.928 51.0737 191.77 57.7913 191.77 57.7913C191.77 57.7913 214.822 65.4686 213.862 73.1459C212.901 80.8232 202.336 118.25 202.336 118.25C202.336 118.25 193.691 163.354 201.375 168.152C209.059 172.951 164.876 185.426 163.915 179.668C162.955 173.91 161.034 116.331 163.915 107.694C166.797 99.0568 174.481 57.7913 174.481 57.7913Z" fill="#D0CDE1"/>
<path d="M140.863 73.1459H128.987C128.987 73.1459 120.693 109.613 119.732 113.452C118.772 117.29 116.851 135.524 117.811 135.524C118.772 135.524 137.982 131.685 137.982 134.564L140.863 73.1459Z" fill="#D0CDE1"/>
<path d="M314.735 362.967V210.528H12.4962V362.967H4.35889V374H322.872V362.967H314.735Z" fill="#3F3D56"/>
<path d="M192.677 249.146H36.9082V314.767H192.677V249.146Z" fill="white"/>
<path d="M270.852 251.741C267.182 249.7 263.122 248.459 258.937 248.1V292.99H270.852V251.741Z" fill="white"/>
<path d="M241.791 292.99H253.706V248.1C249.521 248.459 245.46 249.7 241.791 251.741V292.99Z" fill="white"/>
<path d="M276.083 255.43V292.99H286.255V277.891C286.259 273.64 285.354 269.436 283.6 265.562C281.845 261.688 279.283 258.234 276.083 255.43Z" fill="white"/>
<path d="M236.56 255.431C233.36 258.234 230.797 261.688 229.043 265.562C227.289 269.436 226.384 273.64 226.388 277.891V292.99H236.56V255.431Z" fill="white"/>
<path d="M327.231 203.269H0V217.787H327.231V203.269Z" fill="#3F3D56"/>
<path d="M116.403 310.63C115.571 313.704 112.719 315.608 112.719 315.608C112.719 315.608 111.218 312.527 112.05 309.453C112.883 306.379 115.734 304.474 115.734 304.474C115.734 304.474 117.236 307.555 116.403 310.63Z" fill="#3F3D56"/>
<path d="M108.83 310.63C109.663 313.704 112.514 315.608 112.514 315.608C112.514 315.608 114.016 312.527 113.183 309.453C112.351 306.379 109.5 304.474 109.5 304.474C109.5 304.474 107.998 307.555 108.83 310.63Z" fill="#3F3D56"/>
<path d="M110.053 309.969C112.338 312.19 112.617 315.606 112.617 315.606C112.617 315.606 109.192 315.419 106.908 313.197C104.624 310.975 104.345 307.56 104.345 307.56C104.345 307.56 107.769 307.747 110.053 309.969Z" fill="#3F3D56"/>
<path d="M115.18 309.969C112.896 312.19 112.617 315.606 112.617 315.606C112.617 315.606 116.041 315.419 118.325 313.197C120.61 310.975 120.889 307.56 120.889 307.56C120.889 307.56 117.464 307.747 115.18 309.969Z" fill="#3F3D56"/>
<path d="M97.2361 315.928H74.2405C73.9445 315.669 73.5352 315.315 72.9742 314.835C71.2035 313.318 73.2282 310.535 73.2282 310.535V307.249C73.2282 307.249 75.0007 296.625 76.7714 294.602C76.9879 294.349 77.2368 294.126 77.5115 293.939L76.4407 293.484L76.6307 291.677L75.4868 292.858L73.9664 291.925L73.8148 290.74L72.6233 290.978L77.2868 283.381C81.8077 276.156 87.7429 279.271 87.7429 279.271C97.417 279.264 93.7148 287.326 93.7148 287.326L92.5178 287.584C92.6327 288.2 92.6185 288.833 92.4763 289.444C92.334 290.055 92.0668 290.629 91.6914 291.132C91.3159 291.634 90.8405 292.053 90.2949 292.363C89.7493 292.673 89.1455 292.866 88.5214 292.931C88.0386 293.997 87.9075 295.188 88.1468 296.333L89.9357 297.384L92.2145 302.19C92.2145 302.19 93.9852 302.947 93.9852 306.235C93.9852 309.524 96.5179 315.089 96.5179 315.089C96.7944 315.335 97.0361 315.617 97.2361 315.928Z" fill="#3F3D56"/>
<path d="M144.865 290.519L143.327 286.933L142.223 287.485L141.508 285.731C141.66 285.686 141.797 285.603 141.908 285.489C142.018 285.376 142.098 285.236 142.139 285.084C142.187 284.669 142.3 284.265 142.473 283.884C142.557 283.762 142.67 283.661 142.746 283.533C142.828 283.367 142.877 283.187 142.891 283.002C142.976 282.372 143.063 281.739 143.147 281.106C143.198 280.828 143.212 280.545 143.188 280.264C143.074 279.358 142.223 278.67 142.115 277.764C142.129 277.363 142.111 276.962 142.06 276.565C141.937 276.241 141.743 275.949 141.491 275.711C140.88 275.04 140.268 274.369 139.654 273.699C139.361 273.327 138.992 273.022 138.57 272.807C137.855 272.505 137.041 272.743 136.262 272.755C135.445 272.701 134.632 272.599 133.827 272.45C133.423 272.378 133.008 272.396 132.611 272.503C132.215 272.61 131.847 272.803 131.534 273.069C131.339 273.266 131.194 273.507 130.994 273.696C130.162 274.474 128.529 274.262 128.096 275.313C127.829 275.969 128.233 276.779 127.901 277.407C127.692 277.799 127.227 278.034 127.091 278.458C127.04 278.685 127.066 278.923 127.163 279.135C127.26 279.348 127.423 279.522 127.628 279.634C127.78 279.726 127.945 279.797 128.116 279.843C127.636 280.844 127.404 281.945 127.44 283.055C127.476 284.164 127.778 285.249 128.321 286.217C128.865 287.185 129.634 288.008 130.562 288.617C131.491 289.226 132.553 289.602 133.658 289.715L135.28 292.552L134.612 293.08L135.893 295.897C129.485 298.969 130.255 314.079 130.255 314.079C130.255 314.079 130.203 314.543 130.119 315.348H153.504C153.728 313.147 153.932 310.6 154.091 307.676C154.862 293.591 144.865 290.519 144.865 290.519Z" fill="#3F3D56"/>
<path d="M113.191 252.921C123.784 252.921 132.371 250.971 132.371 248.565H94.0103C94.0103 250.971 102.598 252.921 113.191 252.921Z" fill="#3F3D56"/>
<path d="M255.74 279.634C260.716 279.634 264.749 275.604 264.749 270.632C264.749 265.661 260.716 261.631 255.74 261.631C250.764 261.631 246.731 265.661 246.731 270.632C246.731 275.604 250.764 279.634 255.74 279.634Z" fill="#3F3D56"/>
<path d="M167.585 204.995L248.649 124.002C184.862 124.002 170.078 174.957 166.667 196.982C163.256 174.957 148.472 124.002 84.6851 124.002L165.749 204.995C165.664 206.24 165.65 206.928 165.65 206.928L166.667 205.912L167.684 206.928C167.684 206.928 167.671 206.24 167.585 204.995Z" fill="#3F3D56"/>
<path d="M166.667 151.237C183.969 151.237 197.995 137.223 197.995 119.937C197.995 102.65 183.969 88.636 166.667 88.636C149.365 88.636 135.339 102.65 135.339 119.937C135.339 137.223 149.365 151.237 166.667 151.237Z" fill="white"/>
<path d="M205.217 138.403L191.77 144.161C191.77 144.161 165.836 148 165.836 137.443C165.836 126.887 191.77 132.645 191.77 132.645L200.415 129.883L205.217 138.403Z" fill="#FFB8B8"/>
<path d="M202.336 67.388L213.862 70.2669L222.506 121.129C222.506 121.129 225.388 134.564 220.585 135.524C215.783 136.484 202.336 144.161 202.336 144.161C202.336 144.161 200.415 129.766 196.573 129.766L206.178 122.089L200.415 88.5005L202.336 67.388Z" fill="#D0CDE1"/>
<path d="M165.96 131.988L149.906 115.947C149.646 115.688 149.441 115.381 149.301 115.042C149.161 114.704 149.088 114.342 149.088 113.976C149.088 113.61 149.161 113.247 149.301 112.909C149.441 112.571 149.646 112.264 149.906 112.005C150.165 111.746 150.472 111.541 150.811 111.4C151.149 111.26 151.512 111.188 151.878 111.188C152.245 111.188 152.607 111.26 152.946 111.4C153.284 111.541 153.592 111.746 153.851 112.005L165.693 123.837L203.483 80.7812C203.725 80.506 204.018 80.2811 204.347 80.1192C204.675 79.9573 205.033 79.8616 205.398 79.8377C205.764 79.8137 206.13 79.8619 206.477 79.9796C206.824 80.0972 207.144 80.282 207.42 80.5233C207.695 80.7646 207.92 81.0578 208.083 81.3861C208.245 81.7143 208.34 82.0713 208.364 82.4365C208.388 82.8017 208.34 83.1681 208.222 83.5147C208.104 83.8613 207.92 84.1813 207.678 84.4565L165.96 131.988Z" fill="#F2F2F2"/>
<path d="M371.165 0V185.671H557V0H371.165ZM465.597 181.635C464.599 181.635 463.622 181.339 462.792 180.785C461.961 180.23 461.314 179.442 460.932 178.521C460.55 177.599 460.45 176.584 460.645 175.605C460.839 174.627 461.32 173.728 462.027 173.022C462.733 172.316 463.633 171.836 464.612 171.641C465.592 171.447 466.607 171.546 467.53 171.928C468.453 172.31 469.241 172.957 469.796 173.787C470.351 174.616 470.647 175.592 470.647 176.59C470.647 177.928 470.115 179.211 469.168 180.157C468.221 181.104 466.937 181.635 465.597 181.635Z" fill="#D0CDE1"/>
<path d="M401.256 44.7113C405.883 44.7113 409.633 40.9642 409.633 36.3419C409.633 31.7195 405.883 27.9724 401.256 27.9724C396.63 27.9724 392.879 31.7195 392.879 36.3419C392.879 40.9642 396.63 44.7113 401.256 44.7113Z" fill="#3F3D56"/>
<path d="M401.256 82.3739C405.883 82.3739 409.633 78.6268 409.633 74.0044C409.633 69.3821 405.883 65.635 401.256 65.635C396.63 65.635 392.879 69.3821 392.879 74.0044C392.879 78.6268 396.63 82.3739 401.256 82.3739Z" fill="#3F3D56"/>
<path d="M401.256 120.037C405.883 120.037 409.633 116.289 409.633 111.667C409.633 107.045 405.883 103.298 401.256 103.298C396.63 103.298 392.879 107.045 392.879 111.667C392.879 116.289 396.63 120.037 401.256 120.037Z" fill="#3F3D56"/>
<path d="M401.256 157.699C405.883 157.699 409.633 153.952 409.633 149.33C409.633 144.707 405.883 140.96 401.256 140.96C396.63 140.96 392.879 144.707 392.879 149.33C392.879 153.952 396.63 157.699 401.256 157.699Z" fill="#3F3D56"/>
<path d="M531.246 103.3H428.334C426.103 103.3 424.294 105.107 424.294 107.336V115.999C424.294 118.228 426.103 120.036 428.334 120.036H531.246C533.477 120.036 535.285 118.228 535.285 115.999V107.336C535.285 105.107 533.477 103.3 531.246 103.3Z" fill="#3F3D56"/>
<path d="M531.246 140.959H428.334C426.103 140.959 424.294 142.766 424.294 144.995V153.663C424.294 155.893 426.103 157.7 428.334 157.7H531.246C533.477 157.7 535.285 155.893 535.285 153.663V144.995C535.285 142.766 533.477 140.959 531.246 140.959Z" fill="#3F3D56"/>
<path d="M531.246 65.6359H428.334C426.103 65.6359 424.294 67.443 424.294 69.6722V78.3352C424.294 80.5644 426.103 82.3715 428.334 82.3715H531.246C533.477 82.3715 535.285 80.5644 535.285 78.3352V69.6722C535.285 67.443 533.477 65.6359 531.246 65.6359Z" fill="#3F3D56"/>
<path d="M531.246 27.9718H428.334C426.103 27.9718 424.294 29.7789 424.294 32.0082V40.6762C424.294 42.9054 426.103 44.7125 428.334 44.7125H531.246C533.477 44.7125 535.285 42.9054 535.285 40.6762V32.0082C535.285 29.7789 533.477 27.9718 531.246 27.9718Z" fill="#3F3D56"/>
<path d="M492.867 27.9718V44.7125H428.334C427.264 44.7094 426.238 44.2831 425.481 43.5268C424.724 42.7706 424.298 41.7457 424.294 40.6762V32.0082C424.298 30.9386 424.724 29.9138 425.481 29.1575C426.238 28.4012 427.264 27.9749 428.334 27.9718H492.867Z" fill="white"/>
<path d="M476.202 103.3V120.036H428.334C427.264 120.032 426.238 119.606 425.481 118.85C424.724 118.094 424.298 117.069 424.294 115.999V107.336C424.298 106.267 424.724 105.242 425.481 104.486C426.238 103.729 427.264 103.303 428.334 103.3H476.202Z" fill="white"/>
<path d="M450.448 140.959V157.7H428.334C427.264 157.697 426.238 157.27 425.481 156.514C424.724 155.758 424.298 154.733 424.294 153.663V144.995C424.298 143.926 424.724 142.901 425.481 142.145C426.238 141.388 427.264 140.962 428.334 140.959H450.448Z" fill="white"/>
<path d="M531.246 65.6359H428.334C426.103 65.6359 424.294 67.443 424.294 69.6722V78.3352C424.294 80.5644 426.103 82.3715 428.334 82.3715H531.246C533.477 82.3715 535.285 80.5644 535.285 78.3352V69.6722C535.285 67.443 533.477 65.6359 531.246 65.6359Z" fill="white"/>
<path d="M465.52 176.428C460.844 173.558 455.57 177.532 453.823 181.938C451.624 187.484 455.294 193.379 458.233 197.867C461.573 202.968 464.623 208.278 465.819 214.328C466.851 219.552 466.245 225.269 463.369 229.835C457.61 238.98 444.859 239.025 435.287 238.912C430.632 238.858 425.485 238.537 421.475 235.913C419.607 234.692 418.22 232.861 417.553 230.731C416.886 228.602 416.98 226.308 417.818 224.24C419.505 219.883 424.105 218.002 428.532 218.603C433.424 219.267 437.46 222.341 439.983 226.487C442.894 231.267 444.012 236.947 444.682 242.433C445.02 245.193 445.38 248.343 443.976 250.884C442.909 252.815 440.981 254.073 438.951 254.828C436.506 255.663 433.964 256.181 431.386 256.368C428.143 256.686 424.885 256.835 421.626 256.815C415.131 256.725 408.647 256.265 402.204 255.437C389.193 253.899 376.186 251.638 363.039 251.874C359.82 251.918 356.605 252.145 353.411 252.555C350.485 252.944 347.469 253.62 345.045 255.398C340.711 258.576 339.141 263.836 337.994 268.843C336.721 274.404 335.368 279.894 332.492 284.885C329.731 289.675 325.644 293.874 320.419 295.924C317.971 296.908 315.34 297.352 312.705 297.227C310.756 297.124 310.762 300.152 312.705 300.254C318.647 300.567 324.372 298.069 328.804 294.226C333.445 290.202 336.486 284.641 338.473 278.902C339.387 276.122 340.144 273.292 340.739 270.426C341.302 267.92 341.867 265.349 342.909 262.989C343.905 260.735 345.341 258.67 347.501 257.402C350.086 255.883 353.214 255.55 356.144 255.276C369.619 254.017 383.102 256.028 396.443 257.747C403.137 258.61 409.849 259.414 416.596 259.717C423.028 260.007 429.686 259.983 436.031 258.762C441.285 257.751 446.633 255.011 447.718 249.287C448.307 246.182 447.826 243.003 447.375 239.913C446.984 236.992 446.34 234.11 445.452 231.299C443.694 225.945 440.623 220.811 435.626 217.929C431.201 215.377 425.576 214.538 420.856 216.779C415.999 219.085 413.5 224.596 414.221 229.803C414.959 235.143 419.119 238.809 424.042 240.442C429.002 242.087 434.433 242.017 439.597 241.912C445.069 241.802 450.769 241.426 455.91 239.396C461.291 237.271 465.483 233.42 467.66 228.018C469.902 222.452 469.697 216.16 467.98 210.486C467.014 207.395 465.718 204.418 464.114 201.605C462.591 198.882 460.77 196.351 459.159 193.682C457.684 191.239 456.322 188.549 456.226 185.639C456.208 184.515 456.447 183.401 456.926 182.383C457.405 181.365 458.11 180.471 458.988 179.767C460.503 178.514 462.341 178.029 463.991 179.042C465.657 180.064 467.181 177.447 465.52 176.428V176.428Z" fill="#3F3D56"/>
</g>
<defs>
<clipPath id="clip0">
<rect width="557" height="374" fill="white"/>
</clipPath>
</defs>
</svg>
