<svg width="72" height="45" viewBox="0 0 72 45" fill="none" xmlns="http://www.w3.org/2000/svg">
<path d="M39.6 26.25H37.8V15.9375C37.8 15.4195 37.3972 15 36.9 15H35.3722C34.839 15 34.3181 15.1641 33.8749 15.4723L32.1502 16.6699C32.0519 16.7381 31.9674 16.8259 31.9016 16.9281C31.8358 17.0304 31.79 17.1451 31.7668 17.2658C31.7436 17.3865 31.7435 17.5108 31.7664 17.6315C31.7894 17.7523 31.8349 17.8671 31.9005 17.9695L32.8995 19.5293C32.965 19.6318 33.0492 19.7198 33.1474 19.7883C33.2455 19.8568 33.3557 19.9045 33.4716 19.9287C33.5874 19.9529 33.7067 19.953 33.8226 19.9291C33.9386 19.9052 34.0488 19.8578 34.1471 19.7895L34.2 19.7531V26.25H32.4C31.9027 26.25 31.5 26.6695 31.5 27.1875V29.0625C31.5 29.5805 31.9027 30 32.4 30H39.6C40.0972 30 40.5 29.5805 40.5 29.0625V27.1875C40.5 26.6695 40.0972 26.25 39.6 26.25ZM68.4 0H3.6C1.61212 0 0 1.6793 0 3.75V41.25C0 43.3207 1.61212 45 3.6 45H68.4C70.3879 45 72 43.3207 72 41.25V3.75C72 1.6793 70.3879 0 68.4 0ZM5.4 39.375V31.875C9.37687 31.875 12.6 35.2324 12.6 39.375H5.4ZM5.4 13.125V5.625H12.6C12.6 9.76758 9.37687 13.125 5.4 13.125ZM36 35.625C30.0352 35.625 25.2 29.748 25.2 22.5C25.2 15.2508 30.0352 9.375 36 9.375C41.9647 9.375 46.8 15.2508 46.8 22.5C46.8 29.7504 41.9625 35.625 36 35.625ZM66.6 39.375H59.4C59.4 35.2324 62.6231 31.875 66.6 31.875V39.375ZM66.6 13.125C62.6231 13.125 59.4 9.76758 59.4 5.625H66.6V13.125Z" fill="#97FF9B"/>
</svg>
