<svg width="14" height="14" viewBox="0 0 14 14" fill="none" xmlns="http://www.w3.org/2000/svg">
<path d="M6.36744 2.26508H2.19276C1.87642 2.26508 1.57304 2.39074 1.34935 2.61443C1.12567 2.83812 1 3.1415 1 3.45784V11.8072C1 12.1235 1.12567 12.4269 1.34935 12.6506C1.57304 12.8743 1.87642 13 2.19276 13H10.5421C10.8585 13 11.1618 12.8743 11.3855 12.6506C11.6092 12.4269 11.7349 12.1235 11.7349 11.8072V7.63252" stroke="white" stroke-linecap="round" stroke-linejoin="round"/>
<path d="M10.8362 1.37054C11.0735 1.13329 11.3953 1 11.7308 1C12.0663 1 12.3881 1.13329 12.6254 1.37054C12.8626 1.6078 12.9959 1.92959 12.9959 2.26512C12.9959 2.60065 12.8626 2.92244 12.6254 3.15969L6.95975 8.82532L4.57422 9.42171L5.1706 7.03618L10.8362 1.37054Z" stroke="white" stroke-linecap="round" stroke-linejoin="round"/>
</svg>
