<svg width="63" height="68" viewBox="0 0 63 68" fill="none" xmlns="http://www.w3.org/2000/svg">
<path d="M62.8914 50.0403L59.6582 28.904C59.3434 26.8696 57.7328 25.3768 55.8316 25.3768H26.1879V16.9223H37.8129C38.8785 16.9223 39.7504 15.9712 39.7504 14.8087V2.11364C39.7504 0.951136 38.8785 0 37.8129 0H6.81289C5.74727 0 4.87539 0.951136 4.87539 2.11364V14.7955C4.87539 15.958 5.74727 16.9091 6.81289 16.9091H18.4379V25.3636H8.15703C6.26797 25.3636 4.64531 26.8564 4.33047 28.8908L1.09727 50.0271C1.02461 50.4895 0.988281 50.9519 0.988281 51.4142V63.4091C0.988281 65.7473 2.71992 67.6364 4.86328 67.6364H59.1133C61.2566 67.6364 62.9883 65.7473 62.9883 63.4091V51.4274C63.0004 50.9651 62.9641 50.5027 62.8914 50.0403ZM34.9066 32.7614C34.9066 31.5989 35.7785 30.6477 36.8441 30.6477H38.7816C39.8473 30.6477 40.7191 31.5989 40.7191 32.7614V34.875C40.7191 36.0375 39.8473 36.9886 38.7816 36.9886H36.8441C35.7785 36.9886 34.9066 36.0375 34.9066 34.875V32.7614ZM31.0316 41.2159H32.9691C34.0348 41.2159 34.9066 42.167 34.9066 43.3295V45.4432C34.9066 46.6057 34.0348 47.5568 32.9691 47.5568H31.0316C29.966 47.5568 29.0941 46.6057 29.0941 45.4432V43.3295C29.0941 42.167 29.966 41.2159 31.0316 41.2159ZM27.1566 30.6477C28.2223 30.6477 29.0941 31.5989 29.0941 32.7614V34.875C29.0941 36.0375 28.2223 36.9886 27.1566 36.9886H25.2191C24.1535 36.9886 23.2816 36.0375 23.2816 34.875V32.7614C23.2816 31.5989 24.1535 30.6477 25.2191 30.6477H27.1566ZM10.6879 10.5682V6.34091H33.9379V10.5682H10.6879ZM15.5316 36.9886H13.5941C12.5285 36.9886 11.6566 36.0375 11.6566 34.875V32.7614C11.6566 31.5989 12.5285 30.6477 13.5941 30.6477H15.5316C16.5973 30.6477 17.4691 31.5989 17.4691 32.7614V34.875C17.4691 36.0375 16.5973 36.9886 15.5316 36.9886ZM17.4691 45.4432V43.3295C17.4691 42.167 18.341 41.2159 19.4066 41.2159H21.3441C22.4098 41.2159 23.2816 42.167 23.2816 43.3295V45.4432C23.2816 46.6057 22.4098 47.5568 21.3441 47.5568H19.4066C18.341 47.5568 17.4691 46.6057 17.4691 45.4432ZM43.6254 60.2386C43.6254 60.8199 43.1895 61.2955 42.6566 61.2955H21.3441C20.8113 61.2955 20.3754 60.8199 20.3754 60.2386V58.125C20.3754 57.5438 20.8113 57.0682 21.3441 57.0682H42.6566C43.1895 57.0682 43.6254 57.5438 43.6254 58.125V60.2386ZM46.5316 45.4432C46.5316 46.6057 45.6598 47.5568 44.5941 47.5568H42.6566C41.591 47.5568 40.7191 46.6057 40.7191 45.4432V43.3295C40.7191 42.167 41.591 41.2159 42.6566 41.2159H44.5941C45.6598 41.2159 46.5316 42.167 46.5316 43.3295V45.4432ZM52.3441 34.875C52.3441 36.0375 51.4723 36.9886 50.4066 36.9886H48.4691C47.4035 36.9886 46.5316 36.0375 46.5316 34.875V32.7614C46.5316 31.5989 47.4035 30.6477 48.4691 30.6477H50.4066C51.4723 30.6477 52.3441 31.5989 52.3441 32.7614V34.875Z" fill="#7B7B7B"/>
</svg>
